<mxfile host="app.diagrams.net" modified="2021-10-14T15:45:00.925Z" agent="5.0 (Macintosh; Intel Mac OS X 10_15_7) AppleWebKit/605.1.15 (KHTML, like Gecko) Version/14.1.2 Safari/605.1.15" etag="0ZLceU9wt6tHZYn9OgfW" version="15.5.2" type="github">
  <diagram id="R2lEEEUBdFMjLlhIrx00" name="Page-1">
    <mxGraphModel dx="731" dy="1132" grid="1" gridSize="10" guides="1" tooltips="1" connect="1" arrows="1" fold="1" page="1" pageScale="1" pageWidth="850" pageHeight="1100" math="0" shadow="0" extFonts="Permanent Marker^https://fonts.googleapis.com/css?family=Permanent+Marker">
      <root>
        <mxCell id="0" />
        <mxCell id="1" parent="0" />
        <mxCell id="d2c2TSlTciD1aPgGi_i5-8" style="edgeStyle=orthogonalEdgeStyle;rounded=0;orthogonalLoop=1;jettySize=auto;html=1;exitX=0.5;exitY=1;exitDx=0;exitDy=0;entryX=0;entryY=0.5;entryDx=0;entryDy=0;" edge="1" parent="1" source="d2c2TSlTciD1aPgGi_i5-1" target="d2c2TSlTciD1aPgGi_i5-6">
          <mxGeometry relative="1" as="geometry" />
        </mxCell>
        <mxCell id="d2c2TSlTciD1aPgGi_i5-1" value="Datation" style="rounded=1;whiteSpace=wrap;html=1;" vertex="1" parent="1">
          <mxGeometry x="30" y="120" width="120" height="60" as="geometry" />
        </mxCell>
        <mxCell id="d2c2TSlTciD1aPgGi_i5-11" style="edgeStyle=orthogonalEdgeStyle;rounded=0;orthogonalLoop=1;jettySize=auto;html=1;exitX=1;exitY=0.5;exitDx=0;exitDy=0;entryX=0;entryY=0.5;entryDx=0;entryDy=0;" edge="1" parent="1" source="d2c2TSlTciD1aPgGi_i5-2" target="d2c2TSlTciD1aPgGi_i5-10">
          <mxGeometry relative="1" as="geometry" />
        </mxCell>
        <mxCell id="d2c2TSlTciD1aPgGi_i5-2" value="Retard de croissance intra-utérin" style="rounded=1;whiteSpace=wrap;html=1;" vertex="1" parent="1">
          <mxGeometry x="260" y="320" width="120" height="60" as="geometry" />
        </mxCell>
        <mxCell id="d2c2TSlTciD1aPgGi_i5-5" style="edgeStyle=orthogonalEdgeStyle;rounded=0;orthogonalLoop=1;jettySize=auto;html=1;exitX=0;exitY=0.5;exitDx=0;exitDy=0;entryX=1;entryY=0.5;entryDx=0;entryDy=0;" edge="1" parent="1" source="d2c2TSlTciD1aPgGi_i5-3" target="d2c2TSlTciD1aPgGi_i5-1">
          <mxGeometry relative="1" as="geometry" />
        </mxCell>
        <mxCell id="d2c2TSlTciD1aPgGi_i5-7" style="edgeStyle=orthogonalEdgeStyle;rounded=0;orthogonalLoop=1;jettySize=auto;html=1;exitX=0.5;exitY=1;exitDx=0;exitDy=0;entryX=0.5;entryY=0;entryDx=0;entryDy=0;" edge="1" parent="1" source="d2c2TSlTciD1aPgGi_i5-3" target="d2c2TSlTciD1aPgGi_i5-6">
          <mxGeometry relative="1" as="geometry">
            <Array as="points">
              <mxPoint x="320" y="210" />
              <mxPoint x="320" y="210" />
            </Array>
          </mxGeometry>
        </mxCell>
        <mxCell id="d2c2TSlTciD1aPgGi_i5-12" style="edgeStyle=orthogonalEdgeStyle;rounded=0;orthogonalLoop=1;jettySize=auto;html=1;exitX=1;exitY=0.5;exitDx=0;exitDy=0;entryX=0.5;entryY=0;entryDx=0;entryDy=0;" edge="1" parent="1" source="d2c2TSlTciD1aPgGi_i5-3" target="d2c2TSlTciD1aPgGi_i5-10">
          <mxGeometry relative="1" as="geometry" />
        </mxCell>
        <mxCell id="d2c2TSlTciD1aPgGi_i5-3" value="Biométries" style="rounded=1;whiteSpace=wrap;html=1;" vertex="1" parent="1">
          <mxGeometry x="260" y="120" width="120" height="60" as="geometry" />
        </mxCell>
        <mxCell id="d2c2TSlTciD1aPgGi_i5-9" style="edgeStyle=orthogonalEdgeStyle;rounded=0;orthogonalLoop=1;jettySize=auto;html=1;exitX=0.5;exitY=1;exitDx=0;exitDy=0;entryX=0.5;entryY=0;entryDx=0;entryDy=0;" edge="1" parent="1" source="d2c2TSlTciD1aPgGi_i5-6" target="d2c2TSlTciD1aPgGi_i5-2">
          <mxGeometry relative="1" as="geometry" />
        </mxCell>
        <mxCell id="d2c2TSlTciD1aPgGi_i5-6" value="" style="rhombus;whiteSpace=wrap;html=1;" vertex="1" parent="1">
          <mxGeometry x="300" y="240" width="40" height="40" as="geometry" />
        </mxCell>
        <mxCell id="d2c2TSlTciD1aPgGi_i5-10" value="Détection d&#39;anomalies" style="rounded=1;whiteSpace=wrap;html=1;" vertex="1" parent="1">
          <mxGeometry x="460" y="320" width="110" height="60" as="geometry" />
        </mxCell>
        <mxCell id="d2c2TSlTciD1aPgGi_i5-18" style="edgeStyle=orthogonalEdgeStyle;rounded=0;orthogonalLoop=1;jettySize=auto;html=1;exitX=0;exitY=0.25;exitDx=0;exitDy=0;entryX=0.5;entryY=0;entryDx=0;entryDy=0;" edge="1" parent="1" source="d2c2TSlTciD1aPgGi_i5-13" target="d2c2TSlTciD1aPgGi_i5-3">
          <mxGeometry relative="1" as="geometry" />
        </mxCell>
        <mxCell id="d2c2TSlTciD1aPgGi_i5-13" value="Contrôle qualité des clichés pris" style="rounded=1;whiteSpace=wrap;html=1;" vertex="1" parent="1">
          <mxGeometry x="480" y="40" width="120" height="60" as="geometry" />
        </mxCell>
        <mxCell id="d2c2TSlTciD1aPgGi_i5-17" style="edgeStyle=orthogonalEdgeStyle;rounded=0;orthogonalLoop=1;jettySize=auto;html=1;exitX=0.5;exitY=1;exitDx=0;exitDy=0;entryX=1;entryY=0.5;entryDx=0;entryDy=0;" edge="1" parent="1" source="d2c2TSlTciD1aPgGi_i5-14" target="d2c2TSlTciD1aPgGi_i5-10">
          <mxGeometry relative="1" as="geometry" />
        </mxCell>
        <mxCell id="d2c2TSlTciD1aPgGi_i5-14" value="Présence de structures" style="rounded=1;whiteSpace=wrap;html=1;" vertex="1" parent="1">
          <mxGeometry x="570" y="80" width="120" height="60" as="geometry" />
        </mxCell>
      </root>
    </mxGraphModel>
  </diagram>
</mxfile>
